<svg xmlns="http://www.w3.org/2000/svg" width="24" height="24" viewBox="0 0 24 24" fill="none" stroke="currentColor" stroke-width="1" stroke-linecap="round" stroke-linejoin="round">
  <g transform="translate(1.5, 1.5)">
    <path d="M 9 2 L 6.5 1 Q 5 2.5 3.5 1 L 1 2 L 1.5 5 H 3 V 9 H 7 V 5 H 8.5 Z" />
  </g>
  <g transform="translate(12.5, 1.5)">
    <path d="M 9 2 L 6.5 1 Q 5 2.5 3.5 1 L 1 2 L 1.5 5 H 3 V 9 H 7 V 5 H 8.5 Z" />
  </g>
  <g transform="translate(1.5, 12.5)">
    <path d="M 9 2 L 6.5 1 Q 5 2.5 3.5 1 L 1 2 L 1.5 5 H 3 V 9 H 7 V 5 H 8.5 Z" />
  </g>
  <g transform="translate(12.5, 12.5)">
    <path d="M 9 2 L 6.5 1 Q 5 2.5 3.5 1 L 1 2 L 1.5 5 H 3 V 9 H 7 V 5 H 8.5 Z" />
  </g>
</svg>